solid OpenSCAD_Model
  facet normal -1 0 0
    outer loop
      vertex 0 0 0
      vertex 0 0 5
      vertex 0 19 0
    endloop
  endfacet
  facet normal -1 0 0
    outer loop
      vertex 0 19 0
      vertex 0 0 5
      vertex 0 19 5
    endloop
  endfacet
  facet normal 0 -1 0
    outer loop
      vertex 0 0 5
      vertex 0 0 0
      vertex 17.5 0 0
    endloop
  endfacet
  facet normal 0 -1 0
    outer loop
      vertex 17.5 0 5
      vertex 0 0 5
      vertex 17.5 0 0
    endloop
  endfacet
  facet normal 0 0 -1
    outer loop
      vertex 0 0 0
      vertex 0 19 0
      vertex 17.5 0 0
    endloop
  endfacet
  facet normal 0 0 -1
    outer loop
      vertex 17.5 15.515 0
      vertex 0 19 0
      vertex 17.5 19 0
    endloop
  endfacet
  facet normal 0 0 -1
    outer loop
      vertex 17.5 0 0
      vertex 0 19 0
      vertex 17.5 3.485 0
    endloop
  endfacet
  facet normal 0 0 -1
    outer loop
      vertex 17.5 15.515 0
      vertex 26.5 15.515 0
      vertex 17.5 3.485 0
    endloop
  endfacet
  facet normal 0 0 -1
    outer loop
      vertex 17.5 15.515 0
      vertex 17.5 3.485 0
      vertex 0 19 0
    endloop
  endfacet
  facet normal 0 0 -1
    outer loop
      vertex 17.5 3.485 0
      vertex 26.5 15.515 0
      vertex 26.5 3.485 0
    endloop
  endfacet
  facet normal 0 1 0
    outer loop
      vertex 0 19 0
      vertex 0 19 5
      vertex 17.5 19 0
    endloop
  endfacet
  facet normal 0 1 0
    outer loop
      vertex 17.5 19 0
      vertex 0 19 5
      vertex 17.5 19 5
    endloop
  endfacet
  facet normal 0 0 1
    outer loop
      vertex 0 19 5
      vertex 0 0 5
      vertex 17.5 0 5
    endloop
  endfacet
  facet normal 0 0 1
    outer loop
      vertex 17.5 19 5
      vertex 0 19 5
      vertex 17.5 0 5
    endloop
  endfacet
  facet normal 1 0 0
    outer loop
      vertex 17.5 0 5
      vertex 17.5 0 0
      vertex 17.5 3.485 0
    endloop
  endfacet
  facet normal 1 0 0
    outer loop
      vertex 17.5 15.515 2
      vertex 17.5 0 5
      vertex 17.5 3.485 2
    endloop
  endfacet
  facet normal 1 0 0
    outer loop
      vertex 17.5 3.485 2
      vertex 17.5 0 5
      vertex 17.5 3.485 0
    endloop
  endfacet
  facet normal 1 0 0
    outer loop
      vertex 17.5 19 5
      vertex 17.5 0 5
      vertex 17.5 15.515 2
    endloop
  endfacet
  facet normal 1 0 0
    outer loop
      vertex 17.5 19 0
      vertex 17.5 15.515 2
      vertex 17.5 15.515 0
    endloop
  endfacet
  facet normal 1 0 0
    outer loop
      vertex 17.5 19 5
      vertex 17.5 15.515 2
      vertex 17.5 19 0
    endloop
  endfacet
  facet normal 0 -1 0
    outer loop
      vertex 17.5 3.485 2
      vertex 17.5 3.485 0
      vertex 26.5 3.485 0
    endloop
  endfacet
  facet normal 0 -1 0
    outer loop
      vertex 26.5 3.485 2
      vertex 17.5 3.485 2
      vertex 26.5 3.485 0
    endloop
  endfacet
  facet normal 1 0 0
    outer loop
      vertex 26.5 3.485 2
      vertex 26.5 3.485 0
      vertex 26.5 15.515 0
    endloop
  endfacet
  facet normal 1 0 0
    outer loop
      vertex 26.5 15.515 2
      vertex 26.5 3.485 2
      vertex 26.5 15.515 0
    endloop
  endfacet
  facet normal 0 1 0
    outer loop
      vertex 17.5 15.515 0
      vertex 17.5 15.515 2
      vertex 26.5 15.515 0
    endloop
  endfacet
  facet normal 0 1 0
    outer loop
      vertex 26.5 15.515 0
      vertex 17.5 15.515 2
      vertex 26.5 15.515 2
    endloop
  endfacet
  facet normal 0 0 1
    outer loop
      vertex 17.5 15.515 2
      vertex 17.5 3.485 2
      vertex 26.5 3.485 2
    endloop
  endfacet
  facet normal 0 0 1
    outer loop
      vertex 26.5 15.515 2
      vertex 17.5 15.515 2
      vertex 26.5 3.485 2
    endloop
  endfacet
endsolid OpenSCAD_Model
